HIERARCHY
ROOT Hips
{
	OFFSET 2.142826 101.449409 -1.766026
	CHANNELS 6 Xposition Yposition Zposition Xrotation Yrotation Zrotation
	JOINT Chest
	{
		OFFSET -4.212912 12.286789 4.176174
		CHANNELS 3 Xrotation Yrotation Zrotation
		JOINT Chest2
		{
			OFFSET -5.890066 18.080162 9.873261
			CHANNELS 3 Xrotation Yrotation Zrotation
			JOINT Chest3
			{
				OFFSET -0.800435 13.547882 6.215648
				CHANNELS 3 Xrotation Yrotation Zrotation
				JOINT Neck
				{
					OFFSET -0.177549 15.571213 7.491459
					CHANNELS 3 Xrotation Yrotation Zrotation
					JOINT Head
					{
						OFFSET 0.690059 9.342163 4.698467
						CHANNELS 3 Xrotation Yrotation Zrotation
						End Site
						{
							OFFSET 0.710357 9.372284 4.635010
						}
					}
				}
				JOINT LeftCollar
				{
					OFFSET 3.120192 10.274429 9.300806
					CHANNELS 3 Xrotation Yrotation Zrotation
					JOINT LeftUpArm
					{
						OFFSET 16.795099 -4.207581 -2.953039
						CHANNELS 3 Xrotation Yrotation Zrotation
						JOINT LeftLowArm
						{
							OFFSET 19.786797 -27.352257 0.254898
							CHANNELS 3 Xrotation Yrotation Zrotation
							JOINT LeftHand
							{
								OFFSET 8.138706 -12.423050 26.084023
								CHANNELS 3 Xrotation Yrotation Zrotation
								End Site
								{
									OFFSET 1.778767 -2.715141 5.700809
								}
							}
						}
					}
				}
				JOINT RightCollar
				{
					OFFSET -4.973578 11.199875 7.185741
					CHANNELS 3 Xrotation Yrotation Zrotation
					JOINT RightUpArm
					{
						OFFSET -15.313005 3.369659 -7.915392
						CHANNELS 3 Xrotation Yrotation Zrotation
						JOINT RightLowArm
						{
							OFFSET -14.990793 -30.010971 3.788450
							CHANNELS 3 Xrotation Yrotation Zrotation
							JOINT RightHand
							{
								OFFSET 6.768780 -0.604065 29.236511
								CHANNELS 3 Xrotation Yrotation Zrotation
								End Site
								{
									OFFSET 1.479382 -0.132034 6.389931
								}
							}
						}
					}
				}
			}
		}
	}
	JOINT LeftUpLeg
	{
		OFFSET 8.031282 0.731773 5.948290
		CHANNELS 3 Xrotation Yrotation Zrotation
		JOINT LeftLowLeg
		{
			OFFSET -4.403188 -45.999905 10.421638
			CHANNELS 3 Xrotation Yrotation Zrotation
			JOINT LeftFoot
			{
				OFFSET 0.709676 -40.012604 -19.976393
				CHANNELS 3 Xrotation Yrotation Zrotation
				JOINT LeftToe
				{
					OFFSET -3.420737 -17.578012 15.455472
					CHANNELS 3 Xrotation Yrotation Zrotation
					End Site
					{
						OFFSET -1.971624 -3.755658 23.271585
					}
				}
			}
		}
	}
	JOINT RightUpLeg
	{
		OFFSET -8.031224 -0.731956 -5.948354
		CHANNELS 3 Xrotation Yrotation Zrotation
		JOINT RightLowLeg
		{
			OFFSET 21.567699 -40.157341 -12.893167
			CHANNELS 3 Xrotation Yrotation Zrotation
			JOINT RightFoot
			{
				OFFSET 31.055649 -23.207806 -22.305235
				CHANNELS 3 Xrotation Yrotation Zrotation
				JOINT RightToe
				{
					OFFSET 15.292095 -15.803431 -8.715500
					CHANNELS 3 Xrotation Yrotation Zrotation
					End Site
					{
						OFFSET 5.723518 -22.873217 1.900921
					}
				}
			}
		}
	}
}
MOTION
Frames: 7
Frame Time: 0.033333
5.708984 90.480598 -6.338788 1.167384 -2.536043 8.589970 2.822753 0.963589 0.064605 0.447262 8.378047 -5.680423 -1.724761 -0.335244 3.325175 -2.890786 6.313140 -1.724157 0.000000 0.000000 -0.000000 -0.966576 -8.272963 4.286378 -5.905039 -9.694847 15.581000 -11.472091 -33.858136 -56.906315 0.000000 -0.000004 -0.000000 9.351128 14.766994 -19.409395 -33.330107 55.441892 -1.278725 34.681921 -30.971705 -6.586776 0.000003 -0.000002 0.000000 -21.581552 0.834559 -16.497043 26.295955 -4.409618 5.487085 -2.827939 7.721957 1.987455 -0.000001 0.000001 0.000002 -1.293085 -3.126999 6.422514 -8.605432 0.982741 -16.524060 10.121916 1.744032 0.779925 0.000001 -0.000002 -0.000000 
5.694110 90.434235 -6.422020 1.035122 -2.371781 8.650421 2.926984 0.968540 0.134936 0.651387 8.407189 -5.616980 -1.876639 -0.519820 3.076417 -3.060447 6.349746 -1.720864 -0.000000 0.000001 -0.000001 -0.975859 -7.923994 4.180283 -6.088312 -9.994893 15.655135 -11.371645 -33.812035 -56.976226 -0.000002 -0.000002 -0.000003 9.538981 15.236064 -19.163945 -32.836554 55.362501 -1.860090 34.984369 -31.358891 -6.510296 -0.000004 0.000002 0.000000 -21.510103 0.843596 -16.586045 26.236667 -4.370220 5.558763 -2.720436 7.646754 2.015517 0.000001 0.000000 0.000003 -1.486239 -3.183030 6.370078 -8.567708 0.930124 -16.424399 10.484181 1.839537 0.789820 0.000001 0.000001 -0.000000 
5.680122 90.381538 -6.498679 0.807987 -2.181410 8.869819 3.170882 1.029954 0.187523 0.305149 8.358514 -5.704659 -1.626532 -0.189164 3.199700 -3.474597 6.234004 -1.727290 0.000006 -0.000003 -0.000001 -0.913999 -8.604735 4.017347 -6.307593 -10.253353 15.622376 -11.260598 -33.630984 -56.382962 0.000002 -0.000000 -0.000003 9.387464 15.031795 -19.006480 -32.455638 55.294681 -2.474832 35.348633 -31.167868 -6.319808 0.000000 -0.000002 -0.000002 -21.107603 0.933773 -16.981005 26.097017 -4.313274 5.964983 -3.089279 7.434865 1.667120 -0.000000 -0.000000 0.000001 -1.370259 -3.121383 6.225640 -8.530806 0.901267 -16.456272 10.538958 1.941021 0.981295 0.000003 -0.000007 0.000000 
5.662909 90.333076 -6.563800 0.805423 -1.940112 9.048713 3.027624 0.893545 0.333365 0.702991 8.509862 -5.693634 -1.877908 -0.270865 2.991958 -3.610239 6.242604 -1.789108 0.000002 -0.000000 -0.000000 -0.822208 -8.035781 3.899063 -6.569407 -10.805451 15.681766 -11.405181 -33.749495 -56.264032 0.000000 -0.000003 0.000001 9.416163 14.891351 -19.156459 -32.273689 55.543071 -2.905600 35.705394 -30.952935 -6.253157 0.000001 0.000000 0.000000 -21.337277 1.014084 -17.247640 26.226651 -4.307353 6.137926 -3.344042 7.086392 1.268793 0.000000 0.000000 0.000001 -1.492826 -3.148696 6.084989 -8.304171 1.047586 -16.384490 10.150237 1.778615 0.757185 0.000001 -0.000002 0.000000 
5.645112 90.291168 -6.624794 1.051364 -1.756235 9.095237 2.815478 0.776879 0.403935 0.641190 8.475380 -5.686531 -1.996859 -0.409890 2.988375 -3.356392 6.764794 -1.976747 0.000002 -0.000002 -0.000001 -0.837469 -7.424214 3.919177 -6.822090 -11.252788 15.474046 -11.040624 -33.804785 -56.072035 -0.000002 0.000002 0.000001 9.529250 15.066969 -18.971192 -32.304476 55.807936 -3.127925 36.032984 -31.161130 -6.304201 -0.000001 0.000002 -0.000003 -21.791351 1.024422 -17.308236 26.371917 -4.329508 6.103998 -3.281274 7.181236 1.352666 -0.000001 0.000001 0.000002 -1.963317 -3.386892 6.139745 -8.060500 1.263235 -16.445678 10.248251 1.675826 0.589226 0.000001 -0.000006 -0.000000 
5.634441 90.246597 -6.675866 1.135250 -1.998850 9.270166 2.874062 0.809197 0.363105 0.403276 8.718691 -5.958677 -1.899398 -0.269090 3.367768 -3.372852 6.983519 -2.129204 0.000006 -0.000002 -0.000000 -0.883176 -8.240362 3.832918 -6.372758 -10.314219 15.521579 -11.494320 -33.862992 -56.375664 -0.000000 -0.000001 0.000002 9.609630 15.350208 -19.061422 -32.126006 55.554218 -3.325398 36.626845 -31.503151 -6.103775 -0.000002 0.000000 -0.000002 -22.368680 1.025753 -17.272112 26.964156 -4.303996 5.597356 -3.357199 7.656485 1.653737 -0.000001 0.000000 0.000001 -1.890115 -3.322327 6.036037 -7.572241 1.669273 -16.628592 9.623156 1.660439 0.842330 0.000002 -0.000006 0.000002 
5.624738 90.200928 -6.733809 1.728249 -2.351934 9.353374 2.242982 0.695905 0.188180 0.443125 8.939755 -6.113409 -1.960446 0.212603 3.830555 -3.820384 7.178438 -2.246288 -0.000001 -0.000000 -0.000001 -1.019025 -8.579782 3.808864 -6.506871 -10.038819 15.275016 -10.962708 -33.909447 -57.137305 0.000004 -0.000002 -0.000003 9.322323 15.083831 -19.169606 -32.514754 55.345228 -2.884944 36.952676 -31.065715 -5.407585 0.000001 -0.000004 0.000003 -23.078921 0.986536 -17.096486 27.646301 -4.342359 5.038139 -3.460702 8.371216 2.050864 -0.000001 -0.000001 0.000001 -1.894397 -3.259363 5.906124 -7.685604 1.637746 -16.720085 9.417853 1.537246 0.744568 0.000001 -0.000002 -0.000000 
